<?xml version="1.0" encoding="utf-8"?>
<!-- Generator: Adobe Illustrator 18.1.0, SVG Export Plug-In . SVG Version: 6.00 Build 0)  -->
<!DOCTYPE svg PUBLIC "-//W3C//DTD SVG 1.1//EN" "http://www.w3.org/Graphics/SVG/1.1/DTD/svg11.dtd">
<svg version="1.1" id="Layer_1" xmlns="http://www.w3.org/2000/svg" xmlns:xlink="http://www.w3.org/1999/xlink" x="0px" y="0px"
	 width="200px" height="51px" viewBox="0 0 200 51" enable-background="new 0 0 200 51" xml:space="preserve">
<path fill="#0BB14E" d="M91.2,21.8c-1.1,0-2.3,0-2.3-1.7V0.8h-3.4v19.6c0,3.9,2.9,4.5,5.4,4.3c0,0,10.8-0.5,11.4-0.6v-2.4H91.2z"/>
<path fill="#0BB14E" d="M0,5.3c0-3.5,2.5-4.6,5-4.5c0,0,11.1,0.5,11.7,0.5v2.4H5.3c-1.9,0-1.9,1-1.9,1.8v5.8l11.8,0.3v2.5L3.4,14.5
	v5.8C3.4,22,4.6,22,5.7,22h11v2.4c-0.6,0.1-11.4,0.6-11.4,0.6C2.9,25,0,24.5,0,20.6V5.3z"/>
<path fill="#0BB14E" d="M52.5,0.8h3.4v13.7c0,7.7,2.5,7.8,6.7,7.8c3.6,0,6.5-0.4,6.5-7.8V0.8h3.4v13.7c0,10.7-5.5,10.8-9.9,10.8
	c-5,0-10.1,0.3-10.1-10.8V0.8z"/>
<path fill="#0BB14E" d="M77.4,0.8h3.4v24h-3.4V0.8z"/>
<path fill="#0BB14E" d="M105.9,0.8h3.4v24h-3.4V0.8z"/>
<path fill="#0BB14E" d="M114.1,0.8h10.6c5.5,0,7.2,3.4,7.2,6.3c0,2.4-0.8,4.6-3.5,5.2c1.8,0.3,3.7,2.1,3.7,5.7
	c0,3.6-1.7,6.8-7.4,6.8h-10.6V0.8z M124.6,10.9c2.5,0,3.9-1.2,3.9-3.6c0-2.9-2.1-3.5-3.9-3.5h-7.1v7.1H124.6z M124.7,21.9
	c1.7,0,4.1-0.5,4.1-4c0-2.3-1.2-4.3-4.1-4.3h-7.1v8.3H124.7z"/>
<path fill="#0BB14E" d="M135.6,0.8h11.6c3.7,0,6.5,1.8,6.5,7.3c0,6.2-3.4,6.7-4.6,6.9l5.5,9.8h-3.7l-5.4-9.6l-6.6-0.5v10.1h-3.4V0.8
	z M147,12.2c1.7,0,3.2-0.1,3.2-4.1c0-3.9-1.6-4.4-3.2-4.4h-8v8.5H147z"/>
<path fill="#0BB14E" d="M157.8,5.3c0-3.5,2.5-4.6,5-4.5c0,0,11.1,0.5,11.7,0.5v2.4h-11.4c-1.9,0-1.9,1-1.9,1.8v5.8l11.8,0.3v2.5
	l-11.8,0.3v5.8c0,1.7,1.2,1.7,2.3,1.7h11v2.4c-0.6,0.1-11.4,0.6-11.4,0.6c-2.4,0.1-5.4-0.4-5.4-4.3V5.3z"/>
<path fill="#75C044" d="M181.4,1.7c3.2-1,7.5-1,11.8-0.9c4.1,0.1,6.4,2.4,6.4,5.5v2.1c0,2.4-0.9,4-2.5,4.5c1.6,0.8,2.5,2.3,2.5,4.8
	v1.8c0,3.6-2.1,5.6-6.6,5.6c-4.2,0-8.1,0.1-11.3-0.9l0-2h10.6c2.1,0,3.9-0.3,3.9-2.8v-1.7c0-2.4-1.7-3.1-3.7-3.2l-8.5-0.3v-2.4
	l8.5-0.3c2.5-0.1,3.8-1.1,3.8-3v-2c0-2.1-1.9-2.8-3.8-2.8h-11V1.7z"/>
<path fill="#75C044" d="M38.1,5.9c-1.4-0.2-3.9-0.2-3.9-0.2s-2.5,0-3.9,0.2c-1,0.1-1.4,0.6-1.4,1.6c0,1,0.1,1.8,0.5,3.3
	c0.2,0.8,0.7,1.1,1.1,1.3c0.7,0.2,1.2,0.3,3,0.3v-4c0-0.4,0.3-0.7,0.7-0.7c0.4,0,0.7,0.3,0.7,0.7v4c1.7,0,2.3,0,3-0.3
	c0.4-0.2,0.9-0.5,1.1-1.3c0.4-1.5,0.5-2.3,0.5-3.3C39.5,6.5,39,6,38.1,5.9z"/>
<path fill="#0BB14E" d="M49.3,31c0.1,0,0.2,0,0.3,0.1l0.8-1.2c-1.2-1.5-1.9-3.2-1.9-5.2c0-1.3,0-2.7,0-4c0-2.7,0-5.3,0-8
	c0-1.1-0.1-2.1-0.2-3.2c-0.2-2-0.5-4.4-1.6-6.1c-1.1-1.8-2.9-2.7-5-3C39.6,0.1,37.4,0,35.2,0c-1.4,0-2.9,0-4.3,0
	c-2.2,0.1-4.5,0.1-6.6,0.8c-1.9,0.6-3.3,2-4,3.9c-0.6,1.7-0.9,3.6-1,5.5c-0.1,2.8,0,5.8,0.6,8.5c0.2,1.1,0.6,2.2,1.1,3.2
	c0.5,0.9,1.4,1.4,2.2,1.9c2,1,3.4,1.1,5.6,1.1c2,0.1,4,0,6,0.1c1.7,0.1,3.5,0.2,5.1,0.8c0.9,0.4,1.7,0.9,2.4,1.7c1,1,2.7,2.1,4,2.7
	C47.3,30.6,48.3,30.8,49.3,31z M44.7,25.2c-1.1-1.1-2.3-2-3.6-2.5c-2.1-0.8-4.2-0.9-6.1-1c-1,0-2,0-2.9-0.1c-1,0-2,0-3-0.1l0,0
	c-2-0.1-2.9-0.1-4.3-0.8C24,20.5,23.3,19,23.1,18c-0.5-2.2-0.7-4.8-0.5-7.7c0.1-1.9,0.3-3.3,0.8-4.5c0.4-1,1-1.6,2-2
	c1.5-0.5,3.2-0.5,5.1-0.6l0.6,0c1,0,1.9,0,2.9,0c0.4,0,0.9,0,1.3,0l0,0c2,0,4.1,0.1,6,0.4c2,0.3,2.6,1.3,2.8,1.6
	c0.8,1.2,1,3.1,1.1,4.7l0,0.2c0.1,1,0.1,1.9,0.1,2.7v12c0,0.3,0,0.7,0,1C45.1,25.6,44.9,25.4,44.7,25.2z"/>
<path fill="#75C044" d="M52.5,37.9l1.5-0.2v-1.6c0-0.9,0-2.5,1.8-2.5c0.7,0,1.6,0.1,2.3,0.3v0.6H56c-1.1,0-1.1,0.7-1.1,1.6v1.6h2.5
	v0.9h-2.5v7.6H54v-7.6h-1.5V37.9z"/>
<path fill="#75C044" d="M62.6,37.6c2.9,0,3.7,1.2,3.7,4.5c0,3.2-0.9,4.2-3.7,4.2c-2.9,0-3.7-1.2-3.7-4.2
	C58.9,38.6,59.8,37.6,62.6,37.6z M62.6,45.4c1.8,0,2.8-0.4,2.8-3.3c0-3.2-0.9-3.6-2.8-3.6c-1.9,0-2.8,0.3-2.8,3.6
	C59.8,45.1,60.8,45.4,62.6,45.4z"/>
<path fill="#75C044" d="M70.7,37.6c0.8,0,2.4,0.2,3.5,0.4v0.6c0,0-2.1-0.1-3.5-0.1c-1.1,0-1.9,0.3-1.9,3.5c0,2.8,0.7,3.4,1.9,3.4
	c1.5,0,3.6-0.2,3.6-0.2v0.7c-1.3,0.4-2.3,0.5-3.6,0.5c-1.6,0-2.8-0.6-2.8-4.4C67.9,38.2,69,37.6,70.7,37.6z"/>
<path fill="#75C044" d="M75.9,37.7h0.9v6c0,1.1,0.7,1.8,1.7,1.8c1.3,0,2-0.3,3.3-1v-6.8h0.9v8.6h-0.6l-0.3-1c-1,0.6-2,1.1-3.3,1.1
	c-1.7,0-2.6-1.3-2.6-2.7V37.7z"/>
<path fill="#75C044" d="M84.5,39.7c0-1.3,0.6-2.1,2.2-2.1c0.8,0,3.2,0.1,4,0.2v0.7h-4c-1.1,0-1.3,0.4-1.3,1.2v0.7
	c0,1.1,0.5,1.1,1.3,1.1h2.4c1.3,0,2.1,0.8,2.1,2v0.8c0,1.8-1.1,2-2.1,2c-0.8,0-3.6-0.2-4.3-0.3v-0.7h4.3c0.3,0,1.2,0.1,1.2-1.1v-0.8
	c0-0.6-0.3-1.1-1.2-1.1h-2.4c-1.5,0-2.2-0.3-2.2-2V39.7z"/>
<path fill="#75C044" d="M100.7,37.6c2.9,0,3.7,1.2,3.7,4.5c0,3.2-0.9,4.2-3.7,4.2c-2.9,0-3.7-1.2-3.7-4.2
	C97,38.6,98,37.6,100.7,37.6z M100.7,45.4c1.8,0,2.8-0.4,2.8-3.3c0-3.2-0.9-3.6-2.8-3.6c-1.9,0-2.8,0.3-2.8,3.6
	C97.9,45.1,98.9,45.4,100.7,45.4z"/>
<path fill="#75C044" d="M106.4,37.7h0.6l0.3,1c0.4-0.3,2.1-1,3.2-1c2.3,0,2.9,2.4,2.9,4.3c0,2.2-0.5,4.4-2.9,4.4
	c-0.7,0-2.1-0.2-3.2-0.6v4.8h-0.9V37.7z M110.4,45.4c1.1,0,2-0.7,2-3.5c0-2.3-0.8-3.4-2-3.4c-1.3,0-2.3,0.4-3.2,0.8V45
	C108.4,45.3,109.2,45.4,110.4,45.4z"/>
<path fill="#75C044" d="M119.7,37.7l2.9,7.2l2.9-7.2h1l-3.5,8.6h-0.9l-3.4-8.6H119.7z"/>
<path fill="#75C044" d="M131.1,37.6c2,0,3.3,0.2,3.3,3c0,1.3-0.7,1.8-2.2,1.8h-3.7c0,2.4,0.6,2.9,1.9,2.9c1.5,0,2.7,0,3.9-0.2v0.7
	c-1.3,0.4-2.5,0.5-3.9,0.5c-2.2,0-2.8-1.1-2.8-4.4C127.5,38.1,128.5,37.6,131.1,37.6z M132.1,41.5c0.8,0,1.3-0.2,1.3-0.9
	c0-1.9-0.5-2.1-2.3-2.1c-2,0-2.7,0.2-2.7,3H132.1z"/>
<path fill="#75C044" d="M136.1,37.7h0.6l0.3,1.1c1-0.6,1.9-1.2,3.3-1.2c0.5,0,1,0,1.2,0.1v0.9c-0.3-0.1-0.7-0.1-1.2-0.1
	c-1.3,0-2.1,0.4-3.3,1v6.7h-0.9V37.7z"/>
<path fill="#75C044" d="M142.6,39.7c0-1.3,0.6-2.1,2.2-2.1c0.8,0,3.2,0.1,4,0.2v0.7h-4c-1.1,0-1.3,0.4-1.3,1.2v0.7
	c0,1.1,0.5,1.1,1.3,1.1h2.4c1.3,0,2.1,0.8,2.1,2v0.8c0,1.8-1.1,2-2.1,2c-0.8,0-3.6-0.2-4.3-0.3v-0.7h4.3c0.3,0,1.2,0.1,1.2-1.1v-0.8
	c0-0.6-0.3-1.1-1.2-1.1h-2.4c-1.5,0-2.2-0.3-2.2-2V39.7z"/>
<path fill="#75C044" d="M153.7,37.6c0.8,0,2.4,0.2,3.5,0.4v0.6c0,0-2.1-0.1-3.5-0.1c-1.1,0-1.9,0.3-1.9,3.5c0,2.8,0.7,3.4,1.9,3.4
	c1.5,0,3.6-0.2,3.6-0.2v0.7c-1.3,0.4-2.3,0.5-3.6,0.5c-1.6,0-2.8-0.6-2.8-4.4C150.9,38.2,152.1,37.6,153.7,37.6z"/>
<path fill="#75C044" d="M159.1,33.6h0.9v5.1c1-0.6,2-1.1,3.3-1.1c1.7,0,2.6,1.3,2.6,2.7v6h-0.9v-6c0-1.2-0.7-1.8-1.7-1.8
	c-1.3,0-2,0.3-3.3,0.9v6.8h-0.9V33.6z"/>
<path fill="#75C044" d="M167.8,35.3c0-0.2,0.1-0.3,0.3-0.3h0.6c0.2,0,0.3,0.1,0.3,0.3v0.9c0,0.2-0.1,0.3-0.3,0.3h-0.6
	c-0.2,0-0.3-0.1-0.3-0.3V35.3z M167.9,37.7h0.9v8.6h-0.9V37.7z"/>
<path fill="#75C044" d="M171,33.6h0.9v9.6c0,1.8,0.6,2,1.1,2.1c0,0,1.2,0.3,1.4,0.3v0.6H173c-1.3,0-2.1-0.8-2.1-3V33.6z"/>
</svg>
